<svg width="606" height="288" viewBox="0 0 606 288" fill="none" xmlns="http://www.w3.org/2000/svg">
<path d="M307.344 183.56C307.344 180.808 307.856 178.392 308.88 176.312C309.936 174.232 311.36 172.632 313.152 171.512C314.944 170.392 316.944 169.832 319.152 169.832C321.04 169.832 322.688 170.216 324.096 170.984C325.536 171.752 326.64 172.76 327.408 174.008V170.216H335.616V197H327.408V193.208C326.608 194.456 325.488 195.464 324.048 196.232C322.64 197 320.992 197.384 319.104 197.384C316.928 197.384 314.944 196.824 313.152 195.704C311.36 194.552 309.936 192.936 308.88 190.856C307.856 188.744 307.344 186.312 307.344 183.56ZM327.408 183.608C327.408 181.56 326.832 179.944 325.68 178.76C324.56 177.576 323.184 176.984 321.552 176.984C319.92 176.984 318.528 177.576 317.376 178.76C316.256 179.912 315.696 181.512 315.696 183.56C315.696 185.608 316.256 187.24 317.376 188.456C318.528 189.64 319.92 190.232 321.552 190.232C323.184 190.232 324.56 189.64 325.68 188.456C326.832 187.272 327.408 185.656 327.408 183.608ZM352.45 197.384C350.114 197.384 348.034 196.984 346.21 196.184C344.386 195.384 342.946 194.296 341.89 192.92C340.834 191.512 340.242 189.944 340.114 188.216H348.226C348.322 189.144 348.754 189.896 349.522 190.472C350.29 191.048 351.234 191.336 352.354 191.336C353.378 191.336 354.162 191.144 354.706 190.76C355.282 190.344 355.57 189.816 355.57 189.176C355.57 188.408 355.17 187.848 354.37 187.496C353.57 187.112 352.274 186.696 350.482 186.248C348.562 185.8 346.962 185.336 345.682 184.856C344.402 184.344 343.298 183.56 342.37 182.504C341.442 181.416 340.978 179.96 340.978 178.136C340.978 176.6 341.394 175.208 342.226 173.96C343.09 172.68 344.338 171.672 345.97 170.936C347.634 170.2 349.602 169.832 351.874 169.832C355.234 169.832 357.874 170.664 359.794 172.328C361.746 173.992 362.866 176.2 363.154 178.952H355.57C355.442 178.024 355.026 177.288 354.322 176.744C353.65 176.2 352.754 175.928 351.634 175.928C350.674 175.928 349.938 176.12 349.426 176.504C348.914 176.856 348.658 177.352 348.658 177.992C348.658 178.76 349.058 179.336 349.858 179.72C350.69 180.104 351.97 180.488 353.698 180.872C355.682 181.384 357.298 181.896 358.546 182.408C359.794 182.888 360.882 183.688 361.81 184.808C362.77 185.896 363.266 187.368 363.298 189.224C363.298 190.792 362.85 192.2 361.954 193.448C361.09 194.664 359.826 195.624 358.162 196.328C356.53 197.032 354.626 197.384 352.45 197.384ZM376.528 174.008C377.328 172.76 378.432 171.752 379.84 170.984C381.248 170.216 382.896 169.832 384.784 169.832C386.992 169.832 388.992 170.392 390.784 171.512C392.576 172.632 393.984 174.232 395.008 176.312C396.064 178.392 396.592 180.808 396.592 183.56C396.592 186.312 396.064 188.744 395.008 190.856C393.984 192.936 392.576 194.552 390.784 195.704C388.992 196.824 386.992 197.384 384.784 197.384C382.928 197.384 381.28 197 379.84 196.232C378.432 195.464 377.328 194.472 376.528 193.256V209.768H368.32V170.216H376.528V174.008ZM388.24 183.56C388.24 181.512 387.664 179.912 386.512 178.76C385.392 177.576 384 176.984 382.336 176.984C380.704 176.984 379.312 177.576 378.16 178.76C377.04 179.944 376.48 181.56 376.48 183.608C376.48 185.656 377.04 187.272 378.16 188.456C379.312 189.64 380.704 190.232 382.336 190.232C383.968 190.232 385.36 189.64 386.512 188.456C387.664 187.24 388.24 185.608 388.24 183.56ZM426.146 183.176C426.146 183.944 426.098 184.744 426.002 185.576H407.426C407.554 187.24 408.082 188.52 409.01 189.416C409.97 190.28 411.138 190.712 412.514 190.712C414.562 190.712 415.986 189.848 416.786 188.12H425.522C425.074 189.88 424.258 191.464 423.074 192.872C421.922 194.28 420.466 195.384 418.706 196.184C416.946 196.984 414.978 197.384 412.802 197.384C410.178 197.384 407.842 196.824 405.794 195.704C403.746 194.584 402.146 192.984 400.994 190.904C399.842 188.824 399.266 186.392 399.266 183.608C399.266 180.824 399.826 178.392 400.946 176.312C402.098 174.232 403.698 172.632 405.746 171.512C407.794 170.392 410.146 169.832 412.802 169.832C415.394 169.832 417.698 170.376 419.714 171.464C421.73 172.552 423.298 174.104 424.418 176.12C425.57 178.136 426.146 180.488 426.146 183.176ZM417.746 181.016C417.746 179.608 417.266 178.488 416.306 177.656C415.346 176.824 414.146 176.408 412.706 176.408C411.33 176.408 410.162 176.808 409.202 177.608C408.274 178.408 407.698 179.544 407.474 181.016H417.746ZM438.684 174.68C439.644 173.208 440.844 172.056 442.284 171.224C443.724 170.36 445.324 169.928 447.084 169.928V178.616H444.828C442.78 178.616 441.244 179.064 440.22 179.96C439.196 180.824 438.684 182.36 438.684 184.568V197H430.476V170.216H438.684V174.68ZM455.135 167.432C453.695 167.432 452.511 167.016 451.583 166.184C450.687 165.32 450.239 164.264 450.239 163.016C450.239 161.736 450.687 160.68 451.583 159.848C452.511 158.984 453.695 158.552 455.135 158.552C456.543 158.552 457.695 158.984 458.591 159.848C459.519 160.68 459.983 161.736 459.983 163.016C459.983 164.264 459.519 165.32 458.591 166.184C457.695 167.016 456.543 167.432 455.135 167.432ZM459.215 170.216V197H451.007V170.216H459.215ZM477.356 197.384C474.732 197.384 472.364 196.824 470.252 195.704C468.172 194.584 466.524 192.984 465.308 190.904C464.124 188.824 463.532 186.392 463.532 183.608C463.532 180.856 464.14 178.44 465.355 176.36C466.572 174.248 468.236 172.632 470.348 171.512C472.46 170.392 474.828 169.832 477.452 169.832C480.076 169.832 482.444 170.392 484.556 171.512C486.668 172.632 488.332 174.248 489.548 176.36C490.764 178.44 491.372 180.856 491.372 183.608C491.372 186.36 490.748 188.792 489.5 190.904C488.284 192.984 486.604 194.584 484.46 195.704C482.348 196.824 479.98 197.384 477.356 197.384ZM477.356 190.28C478.924 190.28 480.252 189.704 481.34 188.552C482.46 187.4 483.02 185.752 483.02 183.608C483.02 181.464 482.476 179.816 481.388 178.664C480.332 177.512 479.02 176.936 477.452 176.936C475.852 176.936 474.524 177.512 473.468 178.664C472.412 179.784 471.884 181.432 471.884 183.608C471.884 185.752 472.396 187.4 473.42 188.552C474.476 189.704 475.788 190.28 477.356 190.28ZM494.094 183.56C494.094 180.808 494.606 178.392 495.63 176.312C496.686 174.232 498.11 172.632 499.902 171.512C501.694 170.392 503.694 169.832 505.902 169.832C507.662 169.832 509.262 170.2 510.702 170.936C512.174 171.672 513.326 172.664 514.158 173.912V161.48H522.366V197H514.158V193.16C513.39 194.44 512.286 195.464 510.846 196.232C509.438 197 507.79 197.384 505.902 197.384C503.694 197.384 501.694 196.824 499.902 195.704C498.11 194.552 496.686 192.936 495.63 190.856C494.606 188.744 494.094 186.312 494.094 183.56ZM514.158 183.608C514.158 181.56 513.582 179.944 512.43 178.76C511.31 177.576 509.934 176.984 508.302 176.984C506.67 176.984 505.278 177.576 504.126 178.76C503.006 179.912 502.446 181.512 502.446 183.56C502.446 185.608 503.006 187.24 504.126 188.456C505.278 189.64 506.67 190.232 508.302 190.232C509.934 190.232 511.31 189.64 512.43 188.456C513.582 187.272 514.158 185.656 514.158 183.608Z" fill="#262626"/>
<path d="M147 288H42.8264C10.9095 288 -9.76258 254.599 4.69737 226.393L108.871 23.1897C124.722 -7.7299 169.278 -7.72992 185.129 23.1897L289.303 226.393C303.763 254.599 283.091 288 251.174 288H147Z" fill="#1037AA"/>
<ellipse cx="231" cy="82.2857" rx="84" ry="82.2857" fill="#FF4B4B"/>
<path d="M231 40.6368V81.7797L257.25 107.494" stroke="white" stroke-width="2" stroke-linecap="round" stroke-linejoin="round"/>
<path d="M313.436 224.436C315.863 224.436 317.631 224.913 318.74 225.866C319.849 226.819 320.404 228.163 320.404 229.896C320.404 230.659 320.274 231.395 320.014 232.106C319.771 232.799 319.364 233.423 318.792 233.978C318.22 234.533 317.457 234.975 316.504 235.304C315.551 235.616 314.381 235.772 312.994 235.772H310.862V243H308.522V224.436H313.436ZM313.228 226.438H310.862V233.77H312.734C313.913 233.77 314.892 233.649 315.672 233.406C316.452 233.146 317.033 232.739 317.414 232.184C317.795 231.629 317.986 230.901 317.986 230C317.986 228.804 317.605 227.911 316.842 227.322C316.079 226.733 314.875 226.438 313.228 226.438ZM329.23 228.83C330.929 228.83 332.186 229.203 333 229.948C333.815 230.693 334.222 231.881 334.222 233.51V243H332.558L332.116 241.024H332.012C331.614 241.527 331.198 241.951 330.764 242.298C330.348 242.627 329.863 242.87 329.308 243.026C328.771 243.182 328.112 243.26 327.332 243.26C326.5 243.26 325.746 243.113 325.07 242.818C324.412 242.523 323.892 242.073 323.51 241.466C323.129 240.842 322.938 240.062 322.938 239.126C322.938 237.739 323.484 236.673 324.576 235.928C325.668 235.165 327.35 234.749 329.62 234.68L331.986 234.602V233.77C331.986 232.609 331.735 231.803 331.232 231.352C330.73 230.901 330.019 230.676 329.1 230.676C328.372 230.676 327.679 230.789 327.02 231.014C326.362 231.222 325.746 231.465 325.174 231.742L324.472 230.026C325.079 229.697 325.798 229.419 326.63 229.194C327.462 228.951 328.329 228.83 329.23 228.83ZM329.906 236.266C328.173 236.335 326.968 236.613 326.292 237.098C325.634 237.583 325.304 238.268 325.304 239.152C325.304 239.932 325.538 240.504 326.006 240.868C326.492 241.232 327.107 241.414 327.852 241.414C329.031 241.414 330.01 241.093 330.79 240.452C331.57 239.793 331.96 238.788 331.96 237.436V236.188L329.906 236.266ZM337.798 234.628C337.798 232.6 337.998 230.875 338.396 229.454C338.812 228.015 339.445 226.871 340.294 226.022C341.161 225.155 342.27 224.575 343.622 224.28C344.749 224.037 345.85 223.821 346.924 223.63C347.999 223.439 349.004 223.266 349.94 223.11L350.33 225.112C349.88 225.181 349.377 225.268 348.822 225.372C348.268 225.459 347.704 225.554 347.132 225.658C346.56 225.745 346.006 225.84 345.468 225.944C344.948 226.031 344.489 226.117 344.09 226.204C343.518 226.325 343.007 226.533 342.556 226.828C342.106 227.105 341.716 227.487 341.386 227.972C341.074 228.457 340.823 229.055 340.632 229.766C340.442 230.477 340.329 231.317 340.294 232.288H340.45C340.693 231.959 341.022 231.621 341.438 231.274C341.872 230.927 342.383 230.633 342.972 230.39C343.579 230.147 344.264 230.026 345.026 230.026C346.24 230.026 347.245 230.295 348.042 230.832C348.857 231.352 349.464 232.08 349.862 233.016C350.278 233.952 350.486 235.044 350.486 236.292C350.486 237.835 350.218 239.126 349.68 240.166C349.143 241.206 348.398 241.986 347.444 242.506C346.491 243.009 345.382 243.26 344.116 243.26C343.163 243.26 342.296 243.078 341.516 242.714C340.736 242.333 340.069 241.778 339.514 241.05C338.96 240.322 338.535 239.421 338.24 238.346C337.946 237.271 337.798 236.032 337.798 234.628ZM344.298 241.362C345.061 241.362 345.72 241.206 346.274 240.894C346.846 240.582 347.288 240.071 347.6 239.36C347.912 238.649 348.068 237.705 348.068 236.526C348.068 235.105 347.8 233.987 347.262 233.172C346.742 232.34 345.876 231.924 344.662 231.924C343.9 231.924 343.206 232.097 342.582 232.444C341.958 232.773 341.438 233.155 341.022 233.588C340.606 234.021 340.312 234.385 340.138 234.68C340.138 235.529 340.199 236.353 340.32 237.15C340.442 237.947 340.65 238.667 340.944 239.308C341.256 239.932 341.681 240.435 342.218 240.816C342.773 241.18 343.466 241.362 344.298 241.362ZM366.207 236.006C366.207 237.167 366.051 238.199 365.739 239.1C365.444 239.984 365.011 240.738 364.439 241.362C363.884 241.986 363.2 242.463 362.385 242.792C361.588 243.104 360.695 243.26 359.707 243.26C358.788 243.26 357.939 243.104 357.159 242.792C356.379 242.463 355.703 241.986 355.131 241.362C354.559 240.738 354.108 239.984 353.779 239.1C353.467 238.199 353.311 237.167 353.311 236.006C353.311 234.463 353.571 233.163 354.091 232.106C354.611 231.031 355.356 230.217 356.327 229.662C357.298 229.09 358.45 228.804 359.785 228.804C361.05 228.804 362.16 229.09 363.113 229.662C364.084 230.217 364.838 231.031 365.375 232.106C365.93 233.163 366.207 234.463 366.207 236.006ZM355.677 236.006C355.677 237.098 355.816 238.051 356.093 238.866C356.388 239.663 356.838 240.279 357.445 240.712C358.052 241.145 358.823 241.362 359.759 241.362C360.695 241.362 361.466 241.145 362.073 240.712C362.68 240.279 363.122 239.663 363.399 238.866C363.694 238.051 363.841 237.098 363.841 236.006C363.841 234.897 363.694 233.952 363.399 233.172C363.104 232.392 362.654 231.794 362.047 231.378C361.458 230.945 360.686 230.728 359.733 230.728C358.312 230.728 357.28 231.196 356.639 232.132C355.998 233.068 355.677 234.359 355.677 236.006ZM379.199 230.988H374.649V243H372.387V230.988H367.889V229.064H379.199V230.988ZM387.222 228.83C388.921 228.83 390.178 229.203 390.992 229.948C391.807 230.693 392.214 231.881 392.214 233.51V243H390.55L390.108 241.024H390.004C389.606 241.527 389.19 241.951 388.756 242.298C388.34 242.627 387.855 242.87 387.3 243.026C386.763 243.182 386.104 243.26 385.324 243.26C384.492 243.26 383.738 243.113 383.062 242.818C382.404 242.523 381.884 242.073 381.502 241.466C381.121 240.842 380.93 240.062 380.93 239.126C380.93 237.739 381.476 236.673 382.568 235.928C383.66 235.165 385.342 234.749 387.612 234.68L389.978 234.602V233.77C389.978 232.609 389.727 231.803 389.224 231.352C388.722 230.901 388.011 230.676 387.092 230.676C386.364 230.676 385.671 230.789 385.012 231.014C384.354 231.222 383.738 231.465 383.166 231.742L382.464 230.026C383.071 229.697 383.79 229.419 384.622 229.194C385.454 228.951 386.321 228.83 387.222 228.83ZM387.898 236.266C386.165 236.335 384.96 236.613 384.284 237.098C383.626 237.583 383.296 238.268 383.296 239.152C383.296 239.932 383.53 240.504 383.998 240.868C384.484 241.232 385.099 241.414 385.844 241.414C387.023 241.414 388.002 241.093 388.782 240.452C389.562 239.793 389.952 238.788 389.952 237.436V236.188L387.898 236.266ZM407.803 223.292C407.733 224.159 407.517 224.887 407.153 225.476C406.806 226.065 406.286 226.507 405.593 226.802C404.899 227.097 403.998 227.244 402.889 227.244C401.762 227.244 400.852 227.097 400.159 226.802C399.483 226.507 398.989 226.074 398.677 225.502C398.365 224.913 398.174 224.176 398.105 223.292H400.237C400.323 224.228 400.566 224.861 400.965 225.19C401.381 225.502 402.039 225.658 402.941 225.658C403.738 225.658 404.362 225.493 404.813 225.164C405.281 224.817 405.558 224.193 405.645 223.292H407.803ZM398.677 237.566C398.677 237.722 398.668 237.947 398.651 238.242C398.651 238.519 398.642 238.823 398.625 239.152C398.607 239.464 398.59 239.767 398.573 240.062C398.555 240.339 398.538 240.565 398.521 240.738L405.983 229.064H408.791V243H406.659V234.784C406.659 234.507 406.659 234.143 406.659 233.692C406.676 233.241 406.693 232.799 406.711 232.366C406.728 231.915 406.745 231.577 406.763 231.352L399.353 243H396.519V229.064H398.677V237.566ZM422.393 243.26C421.596 243.26 420.903 243.191 420.313 243.052C419.741 242.931 419.204 242.749 418.701 242.506V240.53C419.221 240.738 419.785 240.92 420.391 241.076C420.998 241.232 421.683 241.31 422.445 241.31C423.347 241.31 424.127 241.154 424.785 240.842C425.444 240.513 425.964 240.01 426.345 239.334C426.727 238.658 426.943 237.8 426.995 236.76H420.131V234.888H426.969C426.848 233.467 426.441 232.427 425.747 231.768C425.071 231.109 424.075 230.78 422.757 230.78C422.255 230.78 421.7 230.849 421.093 230.988C420.504 231.127 419.975 231.283 419.507 231.456L418.857 229.61C419.36 229.385 419.958 229.194 420.651 229.038C421.345 228.882 422.038 228.804 422.731 228.804C424.031 228.804 425.175 229.047 426.163 229.532C427.169 230.017 427.949 230.789 428.503 231.846C429.075 232.903 429.361 234.299 429.361 236.032C429.361 237.679 429.058 239.039 428.451 240.114C427.862 241.189 427.039 241.986 425.981 242.506C424.941 243.009 423.745 243.26 422.393 243.26ZM441.325 228.856C442.712 228.977 443.916 229.341 444.939 229.948C445.979 230.555 446.785 231.369 447.357 232.392C447.929 233.415 448.215 234.628 448.215 236.032C448.215 237.436 447.938 238.658 447.383 239.698C446.828 240.721 446.04 241.535 445.017 242.142C443.994 242.731 442.764 243.087 441.325 243.208V249.24H439.089V243.208C437.72 243.087 436.515 242.731 435.475 242.142C434.435 241.535 433.629 240.721 433.057 239.698C432.485 238.658 432.199 237.436 432.199 236.032C432.199 234.611 432.476 233.389 433.031 232.366C433.586 231.326 434.383 230.511 435.423 229.922C436.463 229.315 437.711 228.96 439.167 228.856V223.24H441.325V228.856ZM439.167 230.754C438.11 230.858 437.243 231.127 436.567 231.56C435.891 231.993 435.388 232.583 435.059 233.328C434.747 234.073 434.591 234.975 434.591 236.032C434.591 237.072 434.747 237.973 435.059 238.736C435.388 239.481 435.891 240.079 436.567 240.53C437.243 240.963 438.11 241.232 439.167 241.336V230.754ZM441.325 241.336C442.365 241.215 443.214 240.937 443.873 240.504C444.549 240.071 445.043 239.481 445.355 238.736C445.684 237.973 445.849 237.072 445.849 236.032C445.849 234.992 445.684 234.099 445.355 233.354C445.026 232.609 444.523 232.019 443.847 231.586C443.188 231.153 442.348 230.884 441.325 230.78V241.336ZM460.165 228.856C461.551 228.977 462.756 229.341 463.779 229.948C464.819 230.555 465.625 231.369 466.197 232.392C466.769 233.415 467.055 234.628 467.055 236.032C467.055 237.436 466.777 238.658 466.223 239.698C465.668 240.721 464.879 241.535 463.857 242.142C462.834 242.731 461.603 243.087 460.165 243.208V249.24H457.929V243.208C456.559 243.087 455.355 242.731 454.315 242.142C453.275 241.535 452.469 240.721 451.897 239.698C451.325 238.658 451.039 237.436 451.039 236.032C451.039 234.611 451.316 233.389 451.871 232.366C452.425 231.326 453.223 230.511 454.263 229.922C455.303 229.315 456.551 228.96 458.007 228.856V223.24H460.165V228.856ZM458.007 230.754C456.949 230.858 456.083 231.127 455.407 231.56C454.731 231.993 454.228 232.583 453.899 233.328C453.587 234.073 453.431 234.975 453.431 236.032C453.431 237.072 453.587 237.973 453.899 238.736C454.228 239.481 454.731 240.079 455.407 240.53C456.083 240.963 456.949 241.232 458.007 241.336V230.754ZM460.165 241.336C461.205 241.215 462.054 240.937 462.713 240.504C463.389 240.071 463.883 239.481 464.195 238.736C464.524 237.973 464.689 237.072 464.689 236.032C464.689 234.992 464.524 234.099 464.195 233.354C463.865 232.609 463.363 232.019 462.687 231.586C462.028 231.153 461.187 230.884 460.165 230.78V241.336ZM476.067 228.804C477.263 228.804 478.285 229.064 479.135 229.584C480.001 230.104 480.66 230.841 481.111 231.794C481.579 232.73 481.813 233.831 481.813 235.096V236.474H472.271C472.305 238.051 472.704 239.256 473.467 240.088C474.247 240.903 475.33 241.31 476.717 241.31C477.601 241.31 478.381 241.232 479.057 241.076C479.75 240.903 480.461 240.66 481.189 240.348V242.35C480.478 242.662 479.776 242.887 479.083 243.026C478.389 243.182 477.566 243.26 476.613 243.26C475.295 243.26 474.125 242.991 473.103 242.454C472.097 241.917 471.309 241.119 470.737 240.062C470.182 238.987 469.905 237.679 469.905 236.136C469.905 234.611 470.156 233.302 470.659 232.21C471.179 231.118 471.898 230.277 472.817 229.688C473.753 229.099 474.836 228.804 476.067 228.804ZM476.041 230.676C474.949 230.676 474.082 231.031 473.441 231.742C472.817 232.435 472.444 233.406 472.323 234.654H479.421C479.421 233.857 479.299 233.163 479.057 232.574C478.814 231.985 478.441 231.525 477.939 231.196C477.453 230.849 476.821 230.676 476.041 230.676ZM493.602 229.064H496.098L490.144 235.772L496.592 243H493.94L487.648 235.928V243H485.36V229.064H487.648V235.824L493.602 229.064ZM508.742 230.988H504.192V243H501.93V230.988H497.432V229.064H508.742V230.988ZM513.645 237.566C513.645 237.722 513.637 237.947 513.619 238.242C513.619 238.519 513.611 238.823 513.593 239.152C513.576 239.464 513.559 239.767 513.541 240.062C513.524 240.339 513.507 240.565 513.489 240.738L520.951 229.064H523.759V243H521.627V234.784C521.627 234.507 521.627 234.143 521.627 233.692C521.645 233.241 521.662 232.799 521.679 232.366C521.697 231.915 521.714 231.577 521.731 231.352L514.321 243H511.487V229.064H513.645V237.566ZM539.4 232.574C539.4 233.441 539.14 234.117 538.62 234.602C538.1 235.087 537.433 235.417 536.618 235.59V235.694C537.485 235.815 538.239 236.127 538.88 236.63C539.522 237.115 539.842 237.878 539.842 238.918C539.842 239.507 539.73 240.053 539.504 240.556C539.296 241.059 538.967 241.492 538.516 241.856C538.066 242.22 537.485 242.506 536.774 242.714C536.064 242.905 535.206 243 534.2 243H528.194V229.064H534.174C535.162 229.064 536.046 229.177 536.826 229.402C537.624 229.61 538.248 229.974 538.698 230.494C539.166 230.997 539.4 231.69 539.4 232.574ZM537.476 238.918C537.476 238.121 537.173 237.549 536.566 237.202C535.96 236.855 535.067 236.682 533.888 236.682H530.482V241.154H533.94C535.084 241.154 535.96 240.989 536.566 240.66C537.173 240.313 537.476 239.733 537.476 238.918ZM537.086 232.86C537.086 232.201 536.844 231.725 536.358 231.43C535.89 231.118 535.119 230.962 534.044 230.962H530.482V234.784H533.628C534.755 234.784 535.613 234.628 536.202 234.316C536.792 234.004 537.086 233.519 537.086 232.86ZM545.463 229.064V234.862H553.029V229.064H555.317V243H553.029V236.786H545.463V243H543.175V229.064H545.463ZM565.112 228.804C566.308 228.804 567.33 229.064 568.18 229.584C569.046 230.104 569.705 230.841 570.156 231.794C570.624 232.73 570.858 233.831 570.858 235.096V236.474H561.316C561.35 238.051 561.749 239.256 562.512 240.088C563.292 240.903 564.375 241.31 565.762 241.31C566.646 241.31 567.426 241.232 568.102 241.076C568.795 240.903 569.506 240.66 570.234 240.348V242.35C569.523 242.662 568.821 242.887 568.128 243.026C567.434 243.182 566.611 243.26 565.658 243.26C564.34 243.26 563.17 242.991 562.148 242.454C561.142 241.917 560.354 241.119 559.782 240.062C559.227 238.987 558.95 237.679 558.95 236.136C558.95 234.611 559.201 233.302 559.704 232.21C560.224 231.118 560.943 230.277 561.862 229.688C562.798 229.099 563.881 228.804 565.112 228.804ZM565.086 230.676C563.994 230.676 563.127 231.031 562.486 231.742C561.862 232.435 561.489 233.406 561.368 234.654H568.466C568.466 233.857 568.344 233.163 568.102 232.574C567.859 231.985 567.486 231.525 566.984 231.196C566.498 230.849 565.866 230.676 565.086 230.676ZM579.787 228.804C580.983 228.804 582.006 229.064 582.855 229.584C583.722 230.104 584.381 230.841 584.831 231.794C585.299 232.73 585.533 233.831 585.533 235.096V236.474H575.991C576.026 238.051 576.425 239.256 577.187 240.088C577.967 240.903 579.051 241.31 580.437 241.31C581.321 241.31 582.101 241.232 582.777 241.076C583.471 240.903 584.181 240.66 584.909 240.348V242.35C584.199 242.662 583.497 242.887 582.803 243.026C582.11 243.182 581.287 243.26 580.333 243.26C579.016 243.26 577.846 242.991 576.823 242.454C575.818 241.917 575.029 241.119 574.457 240.062C573.903 238.987 573.625 237.679 573.625 236.136C573.625 234.611 573.877 233.302 574.379 232.21C574.899 231.118 575.619 230.277 576.537 229.688C577.473 229.099 578.557 228.804 579.787 228.804ZM579.761 230.676C578.669 230.676 577.803 231.031 577.161 231.742C576.537 232.435 576.165 233.406 576.043 234.654H583.141C583.141 233.857 583.02 233.163 582.777 232.574C582.535 231.985 582.162 231.525 581.659 231.196C581.174 230.849 580.541 230.676 579.761 230.676Z" fill="black"/>
</svg>
