<svg width="18" height="20" viewBox="0 0 18 20" fill="none" xmlns="http://www.w3.org/2000/svg">
<path fill-rule="evenodd" clip-rule="evenodd" d="M4 16V6H5H13H14V16C14 17.1046 13.1046 18 12 18H6C4.89543 18 4 17.1046 4 16ZM2 16V6H1C0.447716 6 0 5.55228 0 5C0 4.44772 0.447716 4 1 4H2H3H4C4 1.79086 5.79086 0 8 0H10C12.2091 0 14 1.79086 14 4H15H16H17C17.5523 4 18 4.44772 18 5C18 5.55228 17.5523 6 17 6H16V16C16 18.2091 14.2091 20 12 20H6C3.79086 20 2 18.2091 2 16ZM12 4H6C6 2.89543 6.89543 2 8 2H10C11.1046 2 12 2.89543 12 4ZM7 8C6.44772 8 6 8.44772 6 9V15C6 15.5523 6.44772 16 7 16C7.55228 16 8 15.5523 8 15V9C8 8.44772 7.55228 8 7 8ZM11 8C10.4477 8 10 8.44772 10 9V15C10 15.5523 10.4477 16 11 16C11.5523 16 12 15.5523 12 15V9C12 8.44772 11.5523 8 11 8Z" fill="#BFBFBF"/>
</svg>
