<?xml version="1.0" encoding="utf-8"?>
<!-- Generator: Adobe Illustrator 23.0.3, SVG Export Plug-In . SVG Version: 6.00 Build 0)  -->
<svg version="1.1" width="19.43" height="19.43" xmlns="http://www.w3.org/2000/svg" xmlns:xlink="http://www.w3.org/1999/xlink" x="0px" y="0px"
	 viewBox="0 0 459 459" style="enable-background:new 0 0 459 459;" xml:space="preserve">
<g>
	<g id="exit-to-app">
		<path d="M181.1,321.3l35.7,35.7l127.5-127.5L216.8,102l-35.7,35.7l66.3,66.3H0v51h247.4L181.1,321.3z M408,0H51C23,0,0,23,0,51
			v102h51c0.3-35.7,0.7-71.3,1-107c118.7,1.7,237.3,3.3,356,5v357H51V306H0v102c0,28,23,51,51,51h357c28,0,51-23,51-51V51
			C459,23,436,0,408,0z"/>
	</g>
	<path d="M363,509"/>
</g>
</svg>
