<svg width="20" height="20" viewBox="0 0 20 20" fill="none" xmlns="http://www.w3.org/2000/svg">
<path fill-rule="evenodd" clip-rule="evenodd" d="M8 16C8 17.1046 8.89543 18 10 18C11.1046 18 12 17.1046 12 16H14C14 18.2091 12.2091 20 10 20C7.79086 20 6 18.2091 6 16H8Z" fill="#BFBFBF"/>
<path d="M15 7V14H17V7H15ZM5 14V7H3V14H5ZM3 14C3 14.5523 2.55228 15 2 15V17C3.65685 17 5 15.6569 5 14H3ZM15 14C15 15.6569 16.3431 17 18 17V15C17.4477 15 17 14.5523 17 14H15ZM10 2C12.7614 2 15 4.23858 15 7H17C17 3.13401 13.866 0 10 0V2ZM10 0C6.13401 0 3 3.13401 3 7H5C5 4.23858 7.23858 2 10 2V0Z" fill="#BFBFBF"/>
<path d="M1 16C1 15.4477 1.44772 15 2 15H18C18.5523 15 19 15.4477 19 16C19 16.5523 18.5523 17 18 17H2C1.44772 17 1 16.5523 1 16Z" fill="#BFBFBF"/>
</svg>
